<svg width="72" height="72" viewBox="0 0 72 72" fill="none" xmlns="http://www.w3.org/2000/svg">
<rect width="72" height="72" rx="30" fill="#5B54DC"/>
<path d="M40.8154 27.1387C41.2992 26.4663 42.2367 26.3133 42.9092 26.7969C43.5817 27.2806 43.7346 28.2181 43.251 28.8906L30.6846 46.3613C30.2008 47.0338 29.2633 47.1869 28.5908 46.7031C27.9183 46.2194 27.7653 45.2819 28.249 44.6094L40.8154 27.1387Z" fill="white"/>
<path fill-rule="evenodd" clip-rule="evenodd" d="M36 17C46.4934 17 55 25.5066 55 36V37L54.9941 37.4902C54.7341 47.7571 46.3295 56 36 56C25.5066 56 17 47.4934 17 37V36C17 25.5066 25.5066 17 36 17ZM36 20C27.1634 20 20 27.1634 20 36V37C20 45.8366 27.1634 53 36 53C44.8366 53 52 45.8366 52 37V36C52 27.1634 44.8366 20 36 20Z" fill="white"/>
</svg>
