<svg width="72" height="72" viewBox="0 0 72 72" fill="none" xmlns="http://www.w3.org/2000/svg">
<rect width="72" height="72" rx="30" fill="#5B54DC"/>
<path d="M38.9375 38.8721H42.5088V35.4834H44.3506V38.8721H45.5938V40.5928H44.3506V42.7734H42.5088V40.5928H36.8604V38.8721L40.9268 30.2607H43.0039L38.9375 38.8721Z" fill="white"/>
<path d="M31.3184 30C32.1062 30 32.8138 30.1799 33.4395 30.5391C34.0649 30.8924 34.5569 31.3793 34.916 31.999C35.2809 32.6188 35.4639 33.3256 35.4639 34.1191C35.4638 34.6926 35.3889 35.1794 35.2383 35.5791C35.0877 35.9788 34.8608 36.3497 34.5596 36.6914C34.2584 37.0331 33.8823 37.4042 33.4307 37.8037L29.8086 41.0361H35.4639V42.7646H27L27.0088 41.1484L32.457 36.2656C32.8972 35.8775 33.1961 35.5067 33.3525 35.1533C33.5147 34.7999 33.5957 34.4462 33.5957 34.0928C33.5957 33.6467 33.4968 33.2469 33.2998 32.8936C33.1029 32.5345 32.8309 32.2505 32.4834 32.042C32.1359 31.8335 31.736 31.7295 31.2842 31.7295C30.8207 31.7295 30.406 31.8394 30.041 32.0596C29.682 32.2739 29.4009 32.5609 29.1982 32.9199C28.9956 33.279 28.8976 33.667 28.9033 34.084H27.043C27.043 33.273 27.2259 32.5633 27.5908 31.9551C27.9615 31.3411 28.4684 30.8633 29.1113 30.5215C29.7543 30.174 30.4901 30.0001 31.3184 30Z" fill="white"/>
<path fill-rule="evenodd" clip-rule="evenodd" d="M36 17C46.4934 17 55 25.5066 55 36V37L54.9941 37.4902C54.7341 47.7571 46.3295 56 36 56C25.6705 56 17.2659 47.7571 17.0059 37.4902L17 37V36C17 25.5066 25.5066 17 36 17ZM36 20C27.1634 20 20 27.1634 20 36V37C20 45.8366 27.1634 53 36 53C44.8366 53 52 45.8366 52 37V36C52 27.1634 44.8366 20 36 20Z" fill="white"/>
</svg>
