<svg width="72" height="72" viewBox="0 0 72 72" fill="none" xmlns="http://www.w3.org/2000/svg">
<rect width="72" height="72" rx="30" fill="#5B54DC"/>
<path d="M43 37C43 37 46.9995 42.5013 47 44.8135C47 47.1254 45.2091 49 43 49C40.7909 49 39 47.1254 39 44.8135C39.0005 42.5013 43 37 43 37Z" fill="white"/>
<path d="M29 29C30.0609 29 31.078 29.4217 31.8281 30.1719C32.3345 30.6783 32.6919 31.3061 32.8701 31.9873C33.0132 32.5341 32.5418 33 31.9766 33C31.4113 33 30.9742 32.5118 30.6914 32.0225C30.6069 31.8762 30.5024 31.7407 30.3809 31.6191C30.0146 31.2529 29.518 31.0469 29 31.0469C28.482 31.0469 27.9854 31.2529 27.6191 31.6191C27.4976 31.7407 27.3931 31.8762 27.3086 32.0225C27.0258 32.5119 26.5887 33 26.0234 33C25.4582 33 24.9868 32.5341 25.1299 31.9873C25.3081 31.3061 25.6655 30.6783 26.1719 30.1719C26.922 29.4217 27.9391 29 29 29Z" fill="white"/>
<path d="M43 29C44.0609 29 45.078 29.4217 45.8281 30.1719C46.327 30.6707 46.6805 31.2876 46.8613 31.957C47.0132 32.5197 46.5271 33 45.9443 33C45.3618 32.9998 44.9114 32.4931 44.6025 31.999C44.5274 31.8787 44.4379 31.766 44.3359 31.6641C43.9816 31.3098 43.5011 31.1104 43 31.1104C42.4989 31.1104 42.0184 31.3098 41.6641 31.6641C41.5621 31.766 41.4726 31.8787 41.3975 31.999C41.0886 32.4931 40.6382 32.9998 40.0557 33C39.4729 33 38.9868 32.5196 39.1387 31.957C39.3195 31.2876 39.6731 30.6707 40.1719 30.1719C40.922 29.4217 41.9391 29 43 29Z" fill="white"/>
<path fill-rule="evenodd" clip-rule="evenodd" d="M36 17C46.4934 17 55 25.5066 55 36V37L54.9941 37.4902C54.7341 47.7571 46.3295 56 36 56C25.5066 56 17 47.4934 17 37V36C17 25.5066 25.5066 17 36 17ZM36 20C27.1634 20 20 27.1634 20 36V37C20 45.8366 27.1634 53 36 53C44.8366 53 52 45.8366 52 37V36C52 27.1634 44.8366 20 36 20Z" fill="white"/>
</svg>
