<svg width="539" height="361" viewBox="0 0 539 361" fill="none" xmlns="http://www.w3.org/2000/svg">
<g clip-path="url(#clip0_922_790)">
<g clip-path="url(#clip1_922_790)">
<g clip-path="url(#clip2_922_790)">
<path d="M150.017 361.867L75.9431 363C75.9431 363 45.996 223.522 133.494 199.16C220.993 174.798 152.663 67.4651 245.996 24.1058C339.33 -19.261 457.667 61.1101 466.004 151.335C474.342 241.575 453.873 361.867 453.873 361.867H150.017Z" fill="#9997FD"/>
</g>
<path d="M312.372 183.017C312.372 183.017 297.974 158.602 275.91 160.166C253.846 161.722 262.472 187.173 238.489 178.86C214.49 170.554 188.141 198.167 200.109 229.755C212.108 261.439 228.896 257.8 224.587 271.3C218.029 291.802 205.872 293.632 231.302 317.528C256.732 341.424 317.192 312.853 322.468 273.901C327.744 234.95 312.395 183.009 312.395 183.009H312.387L312.372 183.017Z" fill="#352C38"/>
<path d="M311.286 186.144C311.286 186.144 310.807 185.154 309.753 183.417C308.707 181.68 307.072 179.166 304.736 176.243C302.393 173.327 299.303 169.956 295.206 166.915C291.133 163.898 285.943 161.234 279.912 160.464C276.908 160.095 273.708 160.071 270.602 160.975C267.48 161.847 264.618 163.812 262.275 166.546C261.08 167.898 259.979 169.383 258.799 170.892C257.62 172.4 256.377 173.948 254.821 175.237C254.034 175.873 253.177 176.439 252.241 176.864C251.306 177.28 250.323 177.563 249.316 177.704C247.303 177.987 245.282 177.728 243.348 177.225C241.422 176.738 239.527 175.976 237.726 175.158C236.806 174.75 235.949 174.388 235.029 174.098C234.117 173.791 233.189 173.54 232.245 173.327C228.479 172.51 224.516 172.55 220.671 173.414C212.965 175.143 205.856 180.203 201.138 187.165C198.748 190.623 196.955 194.56 195.854 198.693C194.761 202.834 194.368 207.171 194.643 211.43C194.769 213.56 195.068 215.666 195.493 217.74C195.713 218.77 195.964 219.799 196.24 220.813C196.523 221.85 196.821 222.864 197.136 223.862C198.386 227.893 199.857 231.767 201.563 235.46C203.254 239.145 205.196 242.626 207.24 245.935C209.285 249.243 211.494 252.323 213.602 255.411C214.655 256.959 215.67 258.507 216.55 260.173C217.431 261.823 218.147 263.599 218.414 265.501C218.681 267.402 218.414 269.343 217.816 271.017C217.51 271.874 217.164 272.644 216.802 273.414C216.44 274.192 216.063 274.93 215.67 275.661C214.097 278.576 212.241 281.146 210.378 283.425C209.442 284.564 208.522 285.656 207.72 286.764C206.926 287.872 206.273 289.043 206.045 290.292C205.801 291.542 206.006 292.815 206.375 293.962C206.753 295.125 207.272 296.194 207.822 297.184C208.939 299.164 210.142 300.869 211.258 302.394C213.515 305.411 215.387 307.69 216.668 309.254C217.958 310.794 218.658 311.619 218.658 311.619C218.658 311.619 217.934 310.817 216.597 309.332C215.269 307.823 213.303 305.631 210.975 302.653C209.819 301.16 208.561 299.471 207.374 297.498C206.784 296.5 206.218 295.416 205.786 294.198C205.361 292.988 205.094 291.589 205.329 290.159C205.55 288.721 206.265 287.416 207.059 286.238C207.861 285.059 208.766 283.935 209.662 282.78C211.463 280.47 213.248 277.963 214.726 275.08C215.096 274.357 215.457 273.634 215.788 272.879C216.126 272.117 216.472 271.347 216.723 270.577C217.25 269.029 217.447 267.347 217.187 265.689C216.928 264.031 216.251 262.42 215.402 260.872C214.553 259.324 213.531 257.824 212.461 256.307C210.33 253.29 208.05 250.209 205.919 246.893C203.78 243.585 201.807 240.018 200.053 236.269C198.3 232.513 196.774 228.553 195.485 224.467C195.162 223.437 194.856 222.4 194.565 221.379C194.266 220.318 194.014 219.257 193.771 218.18C193.307 216.019 192.992 213.811 192.851 211.58C192.536 207.109 192.921 202.543 194.061 198.166C195.209 193.789 197.073 189.617 199.581 185.947C204.606 178.608 212.131 173.32 220.301 171.528C224.374 170.624 228.589 170.609 232.583 171.504C233.582 171.732 234.573 171.992 235.532 172.337C236.499 172.66 237.474 173.068 238.355 173.469C240.156 174.302 241.909 175.009 243.733 175.488C245.534 175.96 247.366 176.196 249.112 175.968C250.858 175.748 252.477 175.009 253.877 173.885C256.692 171.614 258.705 168.236 261.268 165.485C262.534 164.094 263.926 162.837 265.46 161.847C266.985 160.857 268.628 160.126 270.288 159.686C273.629 158.775 276.956 158.877 280.054 159.309C283.16 159.765 286.069 160.676 288.664 161.926C291.267 163.175 293.578 164.684 295.631 166.287C299.72 169.493 302.755 172.982 305.043 175.983C307.331 178.993 308.864 181.578 309.863 183.362C310.862 185.154 311.302 186.152 311.302 186.152L311.286 186.144Z" fill="#352C38"/>
<path d="M304.681 189.547C304.681 189.547 304.681 188.855 304.595 187.535C304.524 186.215 304.367 184.274 304.044 181.83C303.714 179.378 303.203 176.424 302.338 173.116C301.473 169.808 300.254 166.13 298.359 162.453C296.464 158.783 293.854 155.082 290.244 152.292C286.659 149.471 282.075 147.774 277.215 147.515C274.793 147.373 272.285 147.538 269.792 147.821C268.542 147.978 267.3 148.198 266.104 148.56C265.515 148.748 264.933 148.968 264.422 149.283C263.911 149.581 263.502 150.013 263.439 150.422C263.368 150.831 263.651 151.365 264.076 151.789C264.492 152.229 265.019 152.599 265.562 152.905C266.663 153.534 267.881 153.974 269.124 154.217C270.351 154.445 271.664 154.5 272.757 154.037C273.291 153.809 273.724 153.424 273.952 152.905C274.196 152.394 274.219 151.742 274.133 151.106C273.968 149.809 273.401 148.52 272.772 147.31C272.135 146.1 271.388 144.929 270.61 143.821C269.03 141.582 267.134 139.665 264.901 138.352C262.676 137.032 260.152 136.404 257.659 136.396C255.159 136.372 252.69 136.938 250.37 137.779C245.715 139.476 241.603 142.218 237.946 145.079C234.298 147.97 231.082 151.051 228.282 154.068C225.656 157.258 222.739 159.804 219.727 161.093C218.233 161.73 216.668 161.997 215.284 161.675C213.9 161.368 212.807 160.488 212.06 159.537C210.566 157.596 210.04 155.64 209.67 154.39C209.316 153.102 209.198 152.402 209.198 152.402C209.198 152.402 209.324 153.102 209.686 154.382C210.063 155.632 210.606 157.581 212.108 159.49C212.855 160.417 213.94 161.282 215.3 161.572C216.66 161.879 218.194 161.604 219.672 160.96C222.644 159.639 225.514 157.117 228.101 153.895C230.869 150.823 234.062 147.695 237.695 144.749C241.343 141.833 245.44 139.012 250.166 137.221C252.525 136.341 255.041 135.728 257.636 135.712C260.223 135.681 262.88 136.309 265.224 137.669C267.583 139.005 269.604 141.024 271.239 143.287C272.065 144.434 272.827 145.605 273.512 146.862C274.18 148.12 274.793 149.448 275.029 150.988C275.131 151.75 275.123 152.599 274.778 153.377C274.447 154.17 273.779 154.736 273.095 155.027C271.703 155.616 270.28 155.514 268.935 155.286C267.591 155.027 266.293 154.579 265.074 153.887C264.461 153.534 263.879 153.141 263.36 152.599C263.101 152.332 262.849 152.017 262.668 151.64C262.487 151.263 262.354 150.784 262.424 150.281C262.597 149.259 263.313 148.725 263.903 148.34C264.524 147.963 265.169 147.719 265.806 147.507C267.087 147.106 268.377 146.878 269.659 146.705C272.214 146.399 274.746 146.226 277.27 146.352C282.295 146.595 287.131 148.34 290.905 151.279C294.711 154.194 297.447 158.036 299.413 161.816C301.387 165.611 302.645 169.375 303.549 172.754C304.445 176.133 304.98 179.151 305.326 181.642C305.68 184.133 305.837 186.113 305.916 187.456C306.002 188.808 306.01 189.547 306.01 189.547L304.689 189.57L304.674 189.547H304.681Z" fill="#352C38"/>
<path d="M265.829 91.715C265.829 91.715 265.672 92.1236 265.444 92.9015C265.216 93.6795 264.893 94.8424 264.602 96.3433C264.327 97.8441 264.068 99.6986 264.076 101.828C264.091 103.95 264.406 106.394 265.515 108.704C266.608 111.022 268.636 113.026 271.208 114.079C272.481 114.621 273.873 114.998 275.281 115.438C276.696 115.87 278.135 116.31 279.598 116.758C282.515 117.685 285.566 118.628 288.467 120.255C289.891 121.096 291.337 122.133 292.234 123.783C292.674 124.6 292.926 125.551 292.957 126.51C292.965 127.468 292.784 128.388 292.517 129.268C291.943 131.005 291.047 132.545 290.079 133.983L289.372 135.036C289.144 135.389 288.884 135.743 288.719 136.096C288.538 136.45 288.334 136.788 288.208 137.165C288.145 137.346 288.051 137.527 287.996 137.715L287.854 138.273C287.728 139.012 287.728 139.75 287.972 140.442C288.216 141.133 288.617 141.77 289.104 142.383C290.071 143.593 291.267 144.669 292.383 145.793C293.516 146.909 294.609 148.056 295.615 149.258C296.614 150.469 297.51 151.749 298.304 153.046C299.853 155.678 300.931 158.421 301.623 161.037C302.307 163.646 302.684 166.106 302.849 168.298C302.959 169.39 302.991 170.404 303.014 171.355C303.062 172.306 303.046 173.162 303.022 173.956C303.022 175.527 302.92 176.745 302.873 177.586C302.818 178.427 302.786 178.867 302.786 178.867L300.498 178.616C300.498 178.616 300.537 178.183 300.6 177.39C300.663 176.588 300.797 175.402 300.828 173.901C300.86 173.154 300.899 172.314 300.876 171.41C300.876 170.498 300.876 169.524 300.781 168.479C300.679 166.389 300.372 164.063 299.79 161.588C299.201 159.12 298.265 156.527 296.873 154.028C296.15 152.787 295.348 151.569 294.428 150.39C293.492 149.219 292.47 148.08 291.377 146.948C290.3 145.809 289.12 144.701 288.074 143.318C287.547 142.626 287.076 141.825 286.761 140.905C286.447 139.978 286.462 138.925 286.667 137.99L286.848 137.299C286.918 137.079 287.021 136.867 287.107 136.662C287.272 136.222 287.508 135.829 287.736 135.444C287.956 135.028 288.208 134.713 288.444 134.352L289.183 133.299C290.15 131.947 291.031 130.502 291.581 128.938C291.833 128.152 292.006 127.351 292.014 126.541C292.014 125.74 291.817 124.962 291.448 124.262C290.724 122.856 289.403 121.826 288.058 121.001C285.299 119.383 282.279 118.385 279.393 117.395C277.931 116.915 276.5 116.452 275.108 115.996C273.7 115.532 272.324 115.124 271.011 114.534C268.377 113.387 266.301 111.258 265.224 108.853C264.123 106.456 263.855 103.958 263.879 101.828C263.895 99.675 264.194 97.8206 264.5 96.3197C264.815 94.8189 265.153 93.6716 265.397 92.8937C265.648 92.1157 265.806 91.715 265.806 91.715L265.837 91.6914L265.829 91.715Z" fill="#352C38"/>
<path d="M287.422 280.132C287.422 280.132 271.593 270.263 257.675 287.401C243.757 304.539 209.214 305.058 215.929 333.103C222.644 361.14 430.917 364.919 444.324 352.834C461.592 337.252 418.895 253.636 390.099 255.718C361.304 257.8 287.414 280.132 287.414 280.132H287.422Z" fill="#6F96BD"/>
<path d="M278.748 255.97L278.984 255.192L263.903 250.744L263.667 251.522L263.439 252.308L278.52 256.755L278.748 255.97Z" fill="#965450"/>
<path d="M299.704 202.991C299.704 202.991 263.722 211.289 274.943 262.483C286.164 313.678 316.956 319.925 332.226 307.902C344.281 298.418 355.069 275.85 346.813 240.285C339.185 207.407 320.243 200.595 299.712 202.999L299.704 202.991Z" fill="#FFAC9D"/>
<path d="M296.401 304.798C308.959 315.713 323.27 314.959 332.226 307.894C340.066 301.718 347.371 290.002 349.25 272.77C339.39 294.269 317.892 307.109 296.409 304.791H296.401V304.798Z" fill="#EF998E"/>
<path d="M296.535 209.506C296.535 209.506 300.38 240.662 321.965 243.263C343.557 245.864 346.923 242.745 346.443 260.401C345.963 278.058 332.045 310.252 355.077 310.778C378.108 311.297 368.995 255.726 390.107 255.726C411.22 255.726 441.926 312.334 441.926 312.334C441.926 312.334 466.884 295.723 450.56 265.588C441.187 248.277 424.171 261.431 424.171 241.692C424.171 221.953 406.424 240.136 410.733 226.628C415.057 213.12 437.601 188.203 414.578 167.937C391.546 147.687 376.197 187.15 367.076 168.456C357.963 149.762 338.076 141.448 323.891 149.762C312.372 156.512 292.706 173.131 296.543 209.49H296.535V209.506Z" fill="#352C38"/>
<path d="M448.334 254.546C448.334 254.546 448.248 254.255 448.083 253.705C447.933 253.147 447.666 252.338 447.281 251.293C446.848 250.271 446.306 249.006 445.315 247.78C444.363 246.554 442.814 245.541 440.888 245.438C439.936 245.36 438.922 245.438 437.853 245.509C436.791 245.548 435.58 245.611 434.424 245.053C433.245 244.527 432.419 243.293 431.924 242.004C431.413 240.708 431.114 239.286 430.917 237.816C430.54 234.924 430.493 231.671 428.849 229.086C428.047 227.829 426.766 227.019 425.272 226.909C423.785 226.76 422.213 227.129 420.577 227.483C419.752 227.656 418.918 227.86 417.943 227.821C417.471 227.821 416.897 227.679 416.425 227.294C415.906 226.894 415.733 226.257 415.6 225.715C415.435 224.615 415.616 223.633 415.773 222.658C415.867 222.203 415.969 221.66 416.095 221.212C416.213 220.757 416.323 220.285 416.496 219.814C417.668 216.034 419.311 212.427 420.868 208.655C422.425 204.899 423.982 201.018 425.154 196.931C426.333 192.861 427.143 188.547 427.017 184.178C426.86 179.833 425.657 175.464 423.251 171.81C420.923 168.101 417.589 165.131 413.956 162.702C413.492 162.365 413.036 162.113 412.565 161.862C412.093 161.61 411.645 161.343 411.173 161.099C410.182 160.691 409.223 160.211 408.201 159.96C406.18 159.363 404.064 159.048 401.973 159.284C397.758 159.654 393.779 161.72 390.139 164.305C388.299 165.586 386.522 166.985 384.697 168.376C382.865 169.759 381.025 171.165 378.886 172.234C377.809 172.721 376.661 173.193 375.379 173.248C374.129 173.318 372.777 173.036 371.715 172.297L371.298 172.045L370.937 171.739L370.229 171.11C369.804 170.647 369.403 170.167 369.026 169.68C368.389 168.69 367.752 167.7 367.107 166.718C362.279 159.08 355.171 153.32 347.379 150.751C343.502 149.454 339.452 148.99 335.576 149.383C331.699 149.784 327.996 151.12 324.866 153.281C318.473 157.642 313.26 163.119 309.454 168.926C308.943 169.625 308.518 170.372 308.094 171.126C307.669 171.865 307.245 172.603 306.828 173.326C306.128 174.859 305.357 176.304 304.76 177.797C304.477 178.544 304.186 179.298 303.911 180.029C303.635 180.76 303.329 181.475 303.148 182.221C302.739 183.699 302.267 185.113 301.953 186.528C301.677 187.95 301.402 189.325 301.143 190.653C300.946 191.989 300.836 193.301 300.687 194.551C300.624 195.179 300.537 195.792 300.49 196.389C300.474 196.986 300.459 197.592 300.443 198.165C300.411 199.328 300.38 200.428 300.349 201.473C300.388 203.564 300.545 205.434 300.608 207.068C300.624 207.885 300.726 208.64 300.82 209.316C300.907 210.007 300.985 210.628 301.064 211.186C301.347 213.417 301.497 214.604 301.497 214.604C301.497 214.604 301.316 213.425 300.954 211.194C300.86 210.636 300.773 210.015 300.655 209.331C300.545 208.648 300.411 207.901 300.38 207.084C300.262 205.457 300.065 203.571 299.979 201.473C299.979 200.413 299.987 199.305 299.995 198.142V196.35C300.026 195.737 300.097 195.124 300.144 194.488C300.262 193.215 300.349 191.902 300.514 190.527C300.757 189.176 300.993 187.769 301.245 186.315C302.472 180.587 304.65 174.199 308.55 168.234C312.364 162.239 317.616 156.55 324.095 151.976C327.374 149.627 331.298 148.15 335.403 147.655C339.507 147.144 343.769 147.662 347.85 148.99C356.036 151.638 363.475 157.626 368.554 165.578C369.175 166.529 369.789 167.48 370.418 168.439C370.748 168.847 371.094 169.256 371.432 169.641L372.006 170.128L372.289 170.38L372.604 170.56C374.224 171.653 376.237 171.33 378.108 170.38C379.995 169.429 381.796 168.069 383.589 166.694C385.389 165.303 387.19 163.865 389.085 162.545C392.852 159.913 397.137 157.665 401.816 157.28C404.135 157.053 406.478 157.39 408.68 158.066C409.805 158.357 410.843 158.876 411.904 159.324C412.423 159.583 412.926 159.881 413.437 160.164C413.956 160.447 414.46 160.738 414.908 161.068C418.666 163.606 422.189 166.757 424.674 170.757C427.253 174.694 428.543 179.471 428.684 184.115C428.786 188.775 427.937 193.285 426.655 197.442C425.397 201.631 423.762 205.528 422.15 209.276C420.546 213.024 418.855 216.623 417.691 220.207C417.534 220.639 417.416 221.118 417.283 221.574C417.141 222.045 417.07 222.454 416.96 222.91C416.795 223.798 416.646 224.717 416.756 225.487C416.842 227.043 418.832 226.627 420.388 226.32C422.016 225.998 423.675 225.613 425.382 225.809C426.223 225.911 427.08 226.139 427.811 226.627C428.535 227.106 429.18 227.742 429.612 228.489C430.524 229.958 430.917 231.585 431.177 233.156C431.428 234.728 431.476 236.237 431.641 237.675C431.798 239.105 432.073 240.48 432.521 241.714C432.962 242.932 433.669 244.016 434.676 244.503C435.667 245.022 436.807 245.014 437.861 244.99C438.922 244.959 439.968 244.904 440.951 244.998C441.942 245.1 442.862 245.376 443.64 245.847C444.403 246.318 445.048 246.916 445.512 247.576C446.479 248.864 446.998 250.169 447.399 251.206C447.76 252.267 448.012 253.084 448.138 253.658C448.287 254.216 448.358 254.506 448.358 254.506V254.538L448.334 254.546Z" fill="#352C38"/>
<path d="M307.575 226.124C307.575 226.124 306.506 223.782 305.106 219.468C303.746 215.162 301.984 208.868 300.962 201.096C299.948 193.348 299.523 184.068 301.001 174.332C301.733 169.476 302.912 164.518 304.611 159.677C306.285 154.837 308.558 150.114 311.129 145.698C313.756 141.251 316.696 137.054 320.133 133.393C321.87 131.585 323.742 129.943 325.794 128.615C327.846 127.303 330.111 126.297 332.525 126.155C333.728 126.108 334.963 126.273 336.079 126.823C337.196 127.366 338.179 128.332 338.682 129.574C339.209 130.799 339.201 132.23 338.784 133.432C338.367 134.634 337.636 135.64 336.779 136.394C336.582 136.606 336.347 136.756 336.126 136.921L335.796 137.172L335.71 137.235L335.647 137.274L335.6 137.298L335.434 137.4L334.758 137.793L333.995 138.131C333.477 138.32 332.942 138.461 332.368 138.461C332.093 138.469 331.794 138.398 331.511 138.351C331.243 138.217 330.937 138.155 330.717 137.934C330.198 137.581 329.914 137.007 329.71 136.465C329.545 135.907 329.458 135.334 329.466 134.783C329.482 133.683 329.718 132.646 330.087 131.711C331.574 127.931 334.483 125.543 337.188 124.285C339.932 122.989 342.543 122.659 344.65 122.588C346.765 122.525 348.417 122.777 349.533 122.957C350.642 123.169 351.232 123.287 351.232 123.287C351.232 123.287 350.634 123.201 349.518 123.036C348.401 122.894 346.75 122.769 344.658 122.887C342.582 123.028 340.019 123.46 337.408 124.804C334.821 126.116 332.155 128.521 330.834 132.025C330.512 132.898 330.323 133.833 330.323 134.768C330.323 135.703 330.583 136.646 331.228 137.094C331.841 137.597 332.8 137.455 333.642 137.125L334.271 136.834L334.939 136.426C335.324 136.174 335.741 135.852 336.103 135.514C336.85 134.846 337.432 133.982 337.738 133.023C338.053 132.065 338.037 131.004 337.62 130.092C337.219 129.181 336.488 128.45 335.576 128.026C334.672 127.586 333.634 127.444 332.596 127.499C330.481 127.633 328.381 128.552 326.463 129.809C324.536 131.067 322.743 132.662 321.076 134.414C317.782 137.974 314.896 142.154 312.364 146.492C309.769 150.869 307.551 155.418 305.869 160.18C304.178 164.919 302.991 169.767 302.236 174.545C300.734 184.1 300.868 193.254 301.764 200.963C302.653 208.687 304.131 215.021 305.373 219.358C306.608 223.704 307.575 226.108 307.575 226.108V226.14V226.124Z" fill="#352C38"/>
<path d="M299.421 197.56C299.421 197.56 299.421 196.9 299.476 195.659C299.531 194.417 299.641 192.602 299.908 190.299C300.176 187.997 300.577 185.208 301.214 182.041C301.843 178.874 302.731 175.33 304.052 171.582C305.366 167.842 307.072 163.881 309.399 160.015C311.719 156.149 314.731 152.377 318.521 149.375C322.287 146.35 326.809 144.111 331.629 142.979C336.449 141.816 341.505 141.73 346.435 142.296L350.123 142.885C351.342 143.144 352.545 143.466 353.74 143.757C356.138 144.315 358.466 145.038 360.809 145.619C365.456 146.806 370.103 147.772 374.601 148.495C379.107 149.203 383.494 149.721 387.662 149.894C391.829 150.067 395.777 149.957 399.37 149.415C401.163 149.124 402.877 148.802 404.458 148.315C405.26 148.118 406.007 147.796 406.746 147.545C407.454 147.215 408.169 146.932 408.806 146.547C410.088 145.816 411.22 144.944 411.928 143.859C412.651 142.791 412.785 141.478 412.337 140.488C411.896 139.49 411.118 138.846 410.45 138.351C410.096 138.123 409.758 137.942 409.451 137.761C409.129 137.612 408.83 137.494 408.57 137.369C408.043 137.125 407.611 137.039 407.336 136.929C407.053 136.842 406.903 136.787 406.903 136.787C406.903 136.787 407.053 136.826 407.336 136.897C407.619 136.984 408.067 137.046 408.602 137.259C408.869 137.361 409.184 137.455 409.514 137.596C409.836 137.769 410.198 137.927 410.568 138.139C411.275 138.594 412.124 139.215 412.667 140.307C412.769 140.59 412.934 140.858 412.966 141.195C412.997 141.353 413.021 141.518 413.052 141.683C413.06 141.855 413.037 142.02 413.037 142.193C413.021 142.885 412.73 143.553 412.384 144.181C411.645 145.423 410.481 146.397 409.168 147.23C406.526 148.92 403.192 149.91 399.543 150.578C395.887 151.238 391.869 151.466 387.638 151.419C383.408 151.371 378.95 151.002 374.389 150.279C369.82 149.58 365.142 148.66 360.416 147.497C358.057 146.94 355.714 146.24 353.339 145.706C352.167 145.439 350.996 145.132 349.808 144.896L346.231 144.354C341.466 143.757 336.614 143.804 332.03 144.865C327.438 145.902 323.144 147.985 319.527 150.821C315.918 153.674 312.914 157.163 310.579 160.848C308.22 164.533 306.451 168.368 305.075 172.006C302.338 179.314 301.017 185.805 300.309 190.347C299.586 194.904 299.452 197.552 299.452 197.552V197.529L299.421 197.56Z" fill="#352C38"/>
<path d="M401.139 255.733C399.166 254.162 397.113 252.661 394.88 251.545C392.671 250.445 390.162 249.722 387.741 250.335C385.311 250.916 383.353 252.794 381.93 254.924C380.491 257.085 379.445 259.513 378.58 261.988C377.723 264.479 377.031 267.033 376.449 269.618C375.859 272.195 375.403 274.82 374.876 277.413C373.83 282.615 372.745 287.801 371.424 292.925C370.08 298.032 368.57 303.148 366.195 307.847C364.992 310.165 363.553 312.428 361.58 314.086C360.589 314.895 359.457 315.555 358.238 315.878C357.019 316.216 355.737 316.216 354.503 315.995C352.026 315.516 349.793 314.196 347.764 312.687C345.743 311.171 343.801 309.371 342.535 306.998C341.906 305.819 341.497 304.492 341.371 303.132C341.245 301.773 341.371 300.39 341.67 299.085C342.252 296.445 343.345 294.017 344.43 291.628C346.655 286.882 348.998 282.199 350.5 277.162C351.263 274.655 351.806 272.085 352.152 269.453C352.505 266.852 352.741 264.196 352.529 261.603C352.332 259.018 351.475 256.488 349.769 254.704C348.078 252.896 345.814 251.828 343.533 250.963C338.91 249.337 334.05 248.457 329.215 247.537C326.793 247.082 324.363 246.665 321.933 246.257C319.535 245.879 317.019 245.408 314.644 244.52C312.269 243.648 309.965 242.477 307.874 240.897C305.79 239.326 303.966 237.346 302.409 235.153C300.86 232.945 299.625 230.486 298.697 227.908C297.73 225.339 297.038 222.659 296.574 219.94C296.087 217.222 295.796 214.463 295.678 211.69C295.607 210.299 295.584 208.908 295.607 207.517C295.615 206.095 295.646 204.767 295.788 203.219L301.182 204.358C300.97 205.505 300.781 206.857 300.64 208.138C300.49 209.434 300.38 210.747 300.309 212.043C300.152 214.66 300.128 217.292 300.246 219.909C300.49 225.134 301.308 230.336 302.991 235.177C303.832 237.589 304.894 239.892 306.199 242.045C307.512 244.174 309.045 246.147 310.807 247.844C314.329 251.286 318.741 253.635 323.443 254.963C325.786 255.639 328.216 256.079 330.669 256.33C331.896 256.464 333.123 256.55 334.365 256.582C335.56 256.629 336.944 256.605 338.249 256.833C339.57 257.053 340.915 257.391 342.197 258.216C342.826 258.625 343.447 259.206 343.856 259.984C344.28 260.762 344.398 261.697 344.328 262.515C344.265 263.332 343.997 264.102 343.738 264.73C343.478 265.391 343.188 266.027 342.857 266.648C342.205 267.889 341.418 269.06 340.475 270.066C339.531 271.072 338.446 271.968 337.149 272.494C336.504 272.746 335.804 272.942 334.978 272.777C334.577 272.691 334.09 272.416 333.87 271.889C333.657 271.378 333.728 270.875 333.838 270.49C334.09 269.712 334.514 269.131 334.947 268.589C335.364 268.07 335.969 267.512 336.677 267.3C337.4 267.072 338.179 267.221 338.792 267.583C339.413 267.944 339.901 268.463 340.317 269.021C341.898 271.323 342.417 274.286 341.937 277.005C341.678 278.364 341.135 279.661 340.333 280.737C339.531 281.814 338.501 282.654 337.377 283.259C338.477 282.599 339.46 281.711 340.199 280.627C340.939 279.55 341.418 278.27 341.615 276.95C341.984 274.317 341.34 271.488 339.814 269.485C339.067 268.502 337.927 267.771 336.936 268.164C336.425 268.353 336.04 268.722 335.655 269.241C335.285 269.744 334.947 270.294 334.813 270.812C334.75 271.072 334.758 271.3 334.813 271.41C334.868 271.52 334.986 271.598 335.198 271.638C335.631 271.716 336.205 271.567 336.724 271.331C337.77 270.844 338.721 270.011 339.515 269.068C340.317 268.117 340.986 267.025 341.528 265.87C341.804 265.288 342.047 264.691 342.26 264.094C342.48 263.465 342.629 262.923 342.645 262.373C342.708 261.281 342.189 260.526 341.261 259.976C340.341 259.45 339.162 259.191 337.998 259.065C336.818 258.916 335.67 259.026 334.341 259.033C333.06 259.065 331.77 259.033 330.488 258.963C327.917 258.821 325.338 258.483 322.798 257.886C320.258 257.289 317.734 256.417 315.336 255.238C312.946 254.028 310.634 252.543 308.574 250.696C306.498 248.873 304.658 246.728 303.085 244.394C301.512 242.045 300.223 239.507 299.169 236.866C297.07 231.578 295.961 225.944 295.466 220.302C295.222 217.481 295.135 214.652 295.183 211.823C295.214 210.417 295.269 208.994 295.363 207.588C295.466 206.15 295.584 204.798 295.804 203.258L301.198 204.397C300.899 205.458 300.632 206.778 300.419 208.004C300.215 209.254 300.058 210.527 299.94 211.792C299.72 214.338 299.68 216.907 299.845 219.469C300.042 222.015 300.435 224.561 301.104 227.005C301.795 229.441 302.763 231.79 304.044 233.943C306.584 238.265 310.563 241.51 315.084 243.302C317.349 244.213 319.692 244.709 322.138 245.164L329.395 246.563C334.231 247.522 339.099 248.425 343.824 250.13C346.152 251.018 348.519 252.15 350.343 254.122C352.199 256.071 353.111 258.868 353.292 261.564C353.496 264.283 353.237 266.962 352.867 269.61C352.498 272.243 351.931 274.875 351.153 277.421C349.604 282.529 347.206 287.228 344.965 291.942C343.864 294.3 342.786 296.704 342.205 299.25C341.591 301.773 341.764 304.515 342.983 306.786C344.178 309.057 346.058 310.833 348.031 312.342C350.028 313.842 352.207 315.139 354.597 315.618C355.777 315.846 357.011 315.846 358.183 315.532C359.354 315.233 360.447 314.612 361.407 313.835C363.333 312.232 364.78 310.023 365.975 307.737C368.35 303.101 369.883 298.001 371.259 292.909C372.604 287.801 373.744 282.623 374.798 277.421C375.332 274.82 375.796 272.211 376.386 269.634C376.968 267.056 377.668 264.495 378.541 262.004C379.421 259.529 380.467 257.085 381.922 254.924C383.353 252.786 385.326 250.908 387.764 250.327C390.194 249.73 392.718 250.445 394.92 251.568C397.153 252.684 399.197 254.201 401.171 255.78V255.717L401.139 255.733Z" fill="#352C38"/>
<path d="M294.994 263.088C295.466 266.726 294.876 269.837 293.673 270.018C292.47 270.199 291.117 267.401 290.645 263.748C290.174 260.109 290.763 256.998 291.967 256.817C293.17 256.636 294.522 259.434 294.994 263.088Z" fill="#1A141C"/>
<path d="M325.086 262.396C325.558 266.034 324.968 269.146 323.765 269.327C322.562 269.507 321.21 266.71 320.738 263.056C320.266 259.402 320.856 256.306 322.059 256.125C323.262 255.945 324.615 258.742 325.086 262.396Z" fill="#1A141C"/>
<path d="M300.836 261.744C301.104 262.593 301.292 263.481 301.402 264.377C301.528 265.28 301.583 266.176 301.607 267.088C301.638 267.543 301.591 267.999 301.575 268.455C301.575 268.911 301.513 269.366 301.473 269.822C301.434 270.286 301.363 270.734 301.277 271.182C301.19 271.63 301.127 272.093 301.009 272.533C300.899 272.981 300.781 273.421 300.648 273.861L300.184 275.158C300.042 275.598 299.822 276.006 299.633 276.415C299.429 276.824 299.232 277.248 298.988 277.625L298.265 278.796C297.998 279.165 297.699 279.503 297.416 279.857L296.983 280.375L296.504 280.847C296.189 281.169 295.859 281.468 295.536 281.766L295.395 280.415C296.362 281.043 297.306 281.711 298.249 282.395C299.185 283.094 300.113 283.786 301.009 284.564C299.908 284.202 298.855 283.754 297.793 283.314C296.74 282.851 295.694 282.371 294.672 281.868L293.783 281.428L294.53 280.517C294.789 280.195 295.049 279.888 295.316 279.574L295.717 279.118L296.071 278.615C296.299 278.285 296.527 277.947 296.763 277.617L297.384 276.556C297.604 276.219 297.762 275.834 297.935 275.456C298.092 275.079 298.32 274.726 298.454 274.325L298.91 273.162L299.287 271.96C299.437 271.567 299.515 271.15 299.625 270.742C299.735 270.333 299.83 269.924 299.908 269.5C299.995 269.084 300.105 268.667 300.168 268.243L300.372 266.962C300.624 265.249 300.781 263.504 300.844 261.713V261.736L300.836 261.744Z" fill="#FC6A5A"/>
<path d="M304.878 292.383C304.878 292.383 304.949 292.077 305.208 291.574C305.326 291.322 305.491 291.031 305.719 290.717C305.947 290.411 306.207 290.049 306.561 289.727C306.883 289.366 307.315 289.067 307.787 288.768C308.039 288.635 308.298 288.509 308.55 288.375C308.817 288.265 309.124 288.203 309.415 288.124C309.714 288.022 310.028 288.014 310.335 287.99C310.649 287.99 310.98 287.92 311.286 287.99C311.601 288.038 311.923 288.093 312.238 288.163C312.56 288.226 312.835 288.383 313.142 288.485C313.441 288.619 313.755 288.713 314.007 288.886C314.274 289.059 314.534 289.24 314.793 289.405C315.336 289.711 315.753 290.175 316.177 290.576C316.39 290.788 316.602 290.976 316.798 291.173C316.995 291.385 317.137 291.613 317.31 291.825C317.64 292.242 317.931 292.658 318.198 293.035C318.465 293.405 318.654 293.813 318.827 294.143C319.008 294.473 319.15 294.78 319.267 295.023C319.496 295.51 319.621 295.801 319.621 295.801C319.621 295.801 319.37 295.62 318.977 295.275C318.78 295.102 318.536 294.898 318.277 294.654C318.009 294.41 317.734 294.127 317.396 293.845C317.058 293.577 316.696 293.271 316.334 292.949C315.981 292.611 315.556 292.32 315.139 292.006C314.723 291.684 314.298 291.369 313.834 291.126L313.158 290.725C312.938 290.584 312.686 290.529 312.458 290.426C312.23 290.34 311.994 290.198 311.758 290.159C311.514 290.112 311.286 290.049 311.05 290.002C310.807 289.923 310.579 289.963 310.351 289.923C310.123 289.9 309.879 289.876 309.659 289.923C309.431 289.955 309.203 289.986 308.982 290.01C308.762 290.073 308.55 290.128 308.338 290.191C308.125 290.238 307.937 290.364 307.74 290.434C307.543 290.505 307.355 290.591 307.174 290.701C306.45 291.079 305.884 291.534 305.483 291.849C305.082 292.171 304.862 292.391 304.862 292.391H304.87L304.878 292.383Z" fill="#FC6A5A"/>
<path d="M297.14 239.475C297.14 239.475 297.258 239.954 297.298 240.811C297.337 241.243 297.329 241.761 297.298 242.366C297.243 242.956 297.235 243.655 297.07 244.378C296.999 244.747 296.928 245.125 296.849 245.525C296.739 245.918 296.629 246.311 296.511 246.728C296.409 247.144 296.228 247.545 296.055 247.969C295.882 248.386 295.717 248.818 295.489 249.242C295.025 250.059 294.577 250.932 293.932 251.678C293.618 252.055 293.35 252.487 292.981 252.817L291.903 253.839C291.55 254.2 291.141 254.46 290.732 254.727C290.323 255.01 289.922 255.253 289.513 255.513C288.664 255.929 287.799 256.283 286.973 256.613C286.116 256.825 285.283 257.006 284.496 257.155C283.71 257.265 282.955 257.234 282.271 257.257C281.933 257.257 281.603 257.265 281.296 257.257C280.981 257.234 280.698 257.171 280.415 257.139C279.873 257.061 279.393 256.959 279 256.88C278.221 256.723 277.797 256.589 277.797 256.589C277.797 256.589 278.237 256.448 279 256.259C279.377 256.173 279.833 256.047 280.345 255.953C280.864 255.874 281.438 255.686 282.051 255.481C282.664 255.269 283.333 255.112 284.009 254.868C284.677 254.578 285.369 254.287 286.085 254.012C286.761 253.643 287.453 253.25 288.153 252.865C288.475 252.621 288.798 252.377 289.128 252.142C289.458 251.914 289.804 251.694 290.087 251.395L290.991 250.578C291.298 250.311 291.542 249.965 291.825 249.674C292.399 249.093 292.839 248.393 293.319 247.765C293.563 247.443 293.736 247.081 293.948 246.751C294.16 246.421 294.365 246.091 294.53 245.753C294.703 245.415 294.884 245.093 295.049 244.771C295.206 244.441 295.355 244.119 295.489 243.82C295.788 243.207 295.985 242.61 296.22 242.099C296.393 241.573 296.598 241.109 296.716 240.708C296.991 239.93 297.125 239.459 297.125 239.459H297.133L297.14 239.475Z" fill="#1A141C"/>
<path d="M310.681 243.277C310.681 243.277 310.767 243.38 310.925 243.568C311.074 243.757 311.334 244.008 311.625 244.33C311.939 244.637 312.324 244.998 312.78 245.383C312.993 245.58 313.252 245.776 313.52 245.965C313.795 246.153 314.039 246.397 314.353 246.578C314.652 246.766 314.966 246.971 315.289 247.175C315.619 247.356 315.965 247.552 316.311 247.749C316.484 247.851 316.665 247.945 316.838 248.047C317.019 248.126 317.215 248.22 317.412 248.299C317.789 248.472 318.175 248.652 318.576 248.825C319.409 249.084 320.211 249.493 321.108 249.697C321.54 249.831 321.988 249.941 322.429 250.075C322.869 250.208 323.333 250.263 323.789 250.365L325.149 250.656C325.613 250.719 326.069 250.774 326.525 250.837C326.981 250.9 327.43 250.97 327.886 251.033C328.342 251.065 328.782 251.104 329.222 251.135C330.111 251.175 330.96 251.348 331.778 251.324C332.604 251.348 333.374 251.387 334.098 251.434C334.821 251.497 335.482 251.473 336.087 251.497C336.677 251.497 337.204 251.528 337.628 251.544C338.485 251.583 338.996 251.646 338.996 251.646C338.996 251.646 338.532 251.858 337.715 252.157C337.298 252.306 336.803 252.495 336.221 252.676C335.639 252.864 334.986 253.108 334.247 253.218C333.516 253.367 332.714 253.524 331.864 253.666C331.015 253.838 330.103 253.823 329.159 253.893C328.688 253.917 328.208 253.941 327.721 253.941C327.233 253.909 326.738 253.878 326.242 253.838C325.747 253.799 325.244 253.76 324.74 253.705L323.238 253.414C322.743 253.296 322.232 253.226 321.744 253.061C321.257 252.888 320.769 252.731 320.282 252.573L319.558 252.322L318.867 251.992C318.41 251.772 317.97 251.552 317.53 251.332C317.105 251.08 316.688 250.813 316.303 250.554C315.894 250.302 315.517 250.035 315.179 249.721C314.825 249.422 314.479 249.147 314.172 248.849C313.873 248.527 313.59 248.228 313.315 247.929C312.78 247.332 312.34 246.743 311.994 246.169C311.632 245.627 311.381 245.1 311.184 244.668C310.807 243.796 310.704 243.262 310.704 243.262H310.72L310.681 243.277Z" fill="#1A141C"/>
<path d="M361.336 236.096C358.332 235.923 359.103 241.447 357.955 243.262C362.279 252.605 358.631 264.384 359 265.178C369.616 262.616 369.993 236.591 361.336 236.088V236.096Z" fill="#FFAC9D"/>
<path d="M269.218 249.407L269.997 249.658C271.719 243.498 275.068 238.531 279.063 235.483C283.058 232.434 287.634 231.326 291.88 232.717L292.1 231.931L292.32 231.145C287.453 229.558 282.358 230.87 278.072 234.147C273.787 237.423 270.256 242.688 268.448 249.147L269.226 249.399L269.218 249.407ZM279.338 277.664L279.558 276.878C275.312 275.487 272.065 271.825 270.296 266.898C268.526 261.972 268.275 255.834 269.989 249.666L269.21 249.415L268.432 249.163C266.631 255.622 266.875 262.129 268.778 267.425C270.673 272.721 274.251 276.87 279.11 278.465L279.33 277.679L279.338 277.664ZM302.212 260.196L301.434 259.944C299.712 266.105 296.362 271.071 292.368 274.12C288.373 277.169 283.797 278.277 279.551 276.886L279.33 277.672L279.11 278.457C283.978 280.045 289.073 278.732 293.358 275.456C297.644 272.179 301.174 266.914 302.983 260.455L302.204 260.203L302.212 260.196ZM292.092 231.939L291.872 232.724C296.118 234.115 299.366 237.777 301.135 242.704C302.904 247.631 303.156 253.768 301.434 259.936L302.212 260.188L302.991 260.439C304.791 253.98 304.548 247.474 302.645 242.177C300.75 236.881 297.172 232.732 292.313 231.137L292.092 231.923V231.939Z" fill="#965450"/>
<path d="M308.762 262.327L309.541 262.578C311.263 256.417 314.613 251.451 318.607 248.402C322.602 245.354 327.178 244.246 331.424 245.636L331.644 244.851L331.865 244.065C326.997 242.478 321.902 243.79 317.616 247.067C313.331 250.343 309.8 255.608 307.992 262.067L308.77 262.319L308.762 262.327ZM318.882 290.584L319.103 289.798C314.856 288.407 311.609 284.745 309.84 279.818C308.07 274.891 307.819 268.754 309.533 262.586L308.755 262.334L307.976 262.083C306.175 268.542 306.419 275.049 308.322 280.345C310.217 285.641 313.795 289.79 318.654 291.385L318.875 290.599L318.882 290.584ZM341.756 273.116L340.978 272.864C339.256 279.025 335.906 283.991 331.912 287.04C327.917 290.089 323.341 291.197 319.095 289.806L318.875 290.592L318.654 291.377C323.522 292.965 328.617 291.652 332.903 288.376C337.188 285.099 340.719 279.834 342.527 273.375L341.749 273.123L341.756 273.116ZM331.637 244.858L331.416 245.644C335.662 247.035 338.91 250.697 340.679 255.624C342.448 260.551 342.7 266.688 340.978 272.856L341.756 273.108L342.535 273.359C344.336 266.9 344.092 260.394 342.189 255.097C340.294 249.801 336.716 245.652 331.857 244.057L331.637 244.843V244.858Z" fill="#965450"/>
<path d="M301.017 263.48C301.211 263.669 301.308 263.763 301.308 263.763C301.308 263.763 301.308 263.763 301.316 263.755C301.324 263.747 301.339 263.732 301.355 263.716C301.394 263.685 301.442 263.63 301.512 263.567C301.654 263.441 301.851 263.276 302.102 263.095C302.598 262.734 303.25 262.372 303.926 262.247C304.579 262.129 305.247 262.247 305.861 262.844C306.498 263.472 307.111 264.659 307.512 266.796L307.913 266.718L308.314 266.639C307.897 264.431 307.245 263.048 306.435 262.254C305.601 261.437 304.65 261.28 303.777 261.437C302.928 261.587 302.157 262.034 301.622 262.427C301.347 262.624 301.127 262.812 300.97 262.954C300.891 263.025 300.828 263.08 300.789 263.119C300.765 263.142 300.75 263.158 300.742 263.166C300.742 263.166 300.734 263.174 300.726 263.182C300.726 263.182 300.823 263.276 301.017 263.465V263.48Z" fill="#965450"/>
<path d="M361.666 235.483V236.3C362.193 236.3 362.759 236.615 363.357 237.314C363.954 238.006 364.481 238.956 364.921 239.97C365.362 240.968 365.7 241.974 365.928 242.728C366.038 243.105 366.125 243.42 366.187 243.64C366.219 243.75 366.235 243.836 366.25 243.891C366.25 243.923 366.266 243.938 366.266 243.954V243.97C366.266 243.97 366.266 243.97 367.06 243.789C367.59 243.669 367.854 243.608 367.854 243.608C367.854 243.608 367.854 243.6 367.854 243.585C367.854 243.569 367.847 243.545 367.839 243.506C367.823 243.443 367.799 243.349 367.768 243.231C367.705 242.995 367.619 242.658 367.493 242.265C367.249 241.463 366.895 240.394 366.415 239.318C365.944 238.249 365.338 237.126 364.591 236.261C363.852 235.405 362.877 234.682 361.658 234.682V235.499L361.666 235.483ZM348.652 274.113C349.187 274.223 349.454 274.278 349.454 274.278C349.454 274.278 349.454 274.27 349.454 274.254C349.454 274.238 349.462 274.207 349.47 274.176C349.486 274.105 349.51 273.995 349.533 273.853C349.588 273.571 349.683 273.162 349.793 272.628C350.021 271.575 350.343 270.066 350.752 268.259C351.57 264.644 352.718 259.827 354.015 255.01C355.32 250.193 356.775 245.4 358.214 241.825C358.938 240.033 359.637 238.587 360.298 237.597C360.628 237.102 360.927 236.756 361.179 236.544C361.438 236.324 361.587 236.3 361.642 236.3V234.666C361.061 234.666 360.55 234.941 360.133 235.287C359.708 235.64 359.315 236.128 358.938 236.686C358.183 237.809 357.436 239.381 356.697 241.212C355.218 244.881 353.74 249.745 352.435 254.586C351.121 259.426 349.973 264.267 349.156 267.897C348.747 269.712 348.417 271.221 348.189 272.282C348.078 272.808 347.984 273.225 347.929 273.508C347.898 273.649 347.874 273.759 347.858 273.83C347.858 273.869 347.843 273.893 347.843 273.916C347.843 273.924 347.843 273.932 347.843 273.94C347.843 273.94 347.843 273.94 348.645 274.105L348.652 274.113ZM342.291 273.123L342.165 273.932L348.527 274.922L348.652 274.113L348.778 273.303L342.417 272.313L342.291 273.123ZM348.652 274.113L348.527 274.922L349.297 275.04L349.454 274.278L348.652 274.113Z" fill="#965450"/>
<path d="M284.064 305.584C284.064 305.584 440.487 311.815 447.202 344.528C451.81 366.97 382.905 363.74 333.964 348.166C285.023 332.584 284.064 305.584 284.064 305.584Z" fill="#FFAC9D"/>
<path d="M256.716 311.297C256.716 311.297 218.831 307.25 214.97 327.398C210.016 353.227 249.041 362.193 342.598 360.637C436.162 359.081 409.773 355.962 384.344 353.887C384.344 353.887 451.999 357.525 386.742 347.137C386.742 347.137 446.723 353.887 387.222 341.935C387.222 341.935 442.885 349.204 378.108 335.185C378.108 335.185 371.196 336.647 360.841 333.629C335.387 326.219 287.752 314.613 256.716 311.297Z" fill="#EF998E"/>
<path d="M362.279 333.111C362.279 333.111 419.374 324.286 375.238 338.313C331.094 352.339 362.279 333.111 362.279 333.111Z" fill="#EF998E"/>
<path d="M334.923 321.173C334.923 321.173 285.621 299.721 277.215 306.322C268.809 312.907 249.796 344.896 278.379 311.988C278.379 311.988 261.701 368.832 283.372 317.496C283.372 317.496 279.126 372.769 288.719 319.343C288.719 319.343 299.586 367.739 294.97 319.602L351.074 330.744L334.915 321.181L334.923 321.173Z" fill="#FFAC9D"/>
<path d="M318.371 93.2079L318.741 91.7306C310.87 89.7661 304.438 92.9171 301.371 97.8833C298.304 102.857 298.721 109.544 304.28 114.078L305.247 112.9L306.215 111.721C301.937 108.224 301.646 103.258 303.974 99.4863C306.301 95.7067 311.349 93.035 318.002 94.693L318.371 93.2157V93.2079ZM301.025 100.036L300.482 101.459C302.881 102.378 306.348 102.645 309.785 102.527C313.26 102.409 316.909 101.899 319.771 101.105C321.194 100.712 322.492 100.233 323.49 99.6513C324.387 99.1327 325.487 98.2841 325.676 96.964C325.881 95.4788 324.827 94.4101 323.781 93.7343C322.665 93.0114 321.005 92.3514 318.78 91.7384L318.371 93.2079L317.962 94.6773C320.078 95.2666 321.391 95.8246 322.122 96.296C322.924 96.8147 322.602 96.9168 322.649 96.5475C322.68 96.351 322.743 96.5553 321.965 97.0111C321.281 97.404 320.258 97.8047 318.961 98.1662C316.374 98.8813 312.961 99.3685 309.69 99.4785C306.372 99.5885 303.4 99.3056 301.583 98.6063L301.041 100.029L301.025 100.036ZM335.238 79.1422L336.716 78.7572C336.079 76.2976 334.168 74.7811 331.841 73.956C329.537 73.1388 326.635 72.9109 323.545 73.0838C317.341 73.4374 309.887 75.4254 303.62 78.2543C300.482 79.6687 297.597 81.3188 295.301 83.1104C293.028 84.8863 291.196 86.9058 290.378 89.1218C289.513 91.4556 289.836 93.8679 291.605 96.0446C293.295 98.1191 296.244 99.9264 300.506 101.467L301.025 100.036L301.544 98.6063C297.486 97.1368 295.151 95.5731 293.972 94.1272C292.879 92.7835 292.745 91.5027 293.232 90.1826C293.767 88.7367 295.096 87.1416 297.172 85.515C299.224 83.912 301.882 82.3797 304.87 81.036C310.854 78.3407 317.947 76.4627 323.71 76.1326C326.604 75.9676 329.042 76.2033 330.811 76.832C332.549 77.4528 333.453 78.3721 333.76 79.5272L335.238 79.1422ZM290.252 63.4657L289.12 62.4441C285.747 66.1609 283.828 69.5241 283.262 72.5809C282.68 75.724 283.561 78.4036 285.464 80.5488C287.311 82.6233 290.064 84.1398 293.193 85.2321C296.346 86.3322 300.003 87.0394 303.801 87.4402C311.389 88.2338 319.716 87.7938 326.014 86.4972C329.144 85.8529 331.896 84.9728 333.807 83.8648C334.758 83.3069 335.615 82.6311 336.174 81.7982C336.763 80.9102 337.015 79.8573 336.708 78.7415L335.238 79.1501L333.767 79.5587C333.807 79.7001 333.807 79.8416 333.642 80.093C333.437 80.3916 333.02 80.7924 332.266 81.2246C330.772 82.0968 328.397 82.8904 325.393 83.5112C319.417 84.737 311.404 85.1771 304.107 84.407C300.467 84.022 297.054 83.354 294.184 82.3561C291.298 81.3503 289.096 80.0616 287.736 78.5293C286.431 77.0599 285.849 75.3233 286.258 73.1466C286.675 70.8757 288.184 68.0154 291.377 64.5029L290.244 63.4814L290.252 63.4657ZM331.959 52.6218L332.486 51.1916C329.726 50.1779 326.038 49.9658 322.098 50.2565C318.12 50.5473 313.732 51.3566 309.47 52.5117C305.208 53.659 301.033 55.1599 297.486 56.8414C293.979 58.5073 290.952 60.4168 289.112 62.4441L290.244 63.4657L291.377 64.4872C292.816 62.8999 295.411 61.1947 298.8 59.5839C302.149 57.9887 306.152 56.5507 310.264 55.4427C314.377 54.3348 318.576 53.5647 322.319 53.2897C326.101 53.0146 329.27 53.2582 331.432 54.0519L331.959 52.6218ZM316.028 71.1036L316.225 72.6123C318.717 72.2901 322.201 71.3707 325.7 70.0899C329.199 68.809 332.832 67.1275 335.584 65.2101C336.96 64.2593 338.179 63.2064 339.051 62.0591C339.916 60.9197 340.522 59.576 340.42 58.0987C340.31 56.59 339.492 55.2699 338.163 54.1462C336.85 53.0382 334.963 52.056 332.47 51.168L331.959 52.606L331.448 54.044C333.76 54.8691 335.269 55.7021 336.189 56.48C337.094 57.2422 337.337 57.863 337.369 58.3187C337.4 58.7981 337.219 59.4267 336.614 60.2204C336.008 61.014 335.073 61.8548 333.838 62.7113C331.377 64.4165 328.012 65.9959 324.638 67.2296C321.265 68.4633 318.017 69.3041 315.824 69.587L316.02 71.0957L316.028 71.1036ZM275.249 57.8394L273.763 57.5015C273.244 59.796 273.331 61.8705 273.991 63.7171C274.652 65.5637 275.855 67.0646 277.38 68.2747C280.384 70.6635 284.772 72.0072 289.427 72.7459C298.776 74.2389 310.083 73.4138 316.232 72.6044L316.036 71.0957L315.839 69.587C309.8 70.3806 298.839 71.1586 289.914 69.7363C285.424 69.0212 281.674 67.7797 279.291 65.8859C278.119 64.9587 277.317 63.8979 276.877 62.6799C276.445 61.4698 276.334 59.9925 276.751 58.1694L275.265 57.8315L275.249 57.8394ZM329.152 40.552L329.27 39.0354C321.438 38.4225 308.629 38.5168 297.313 40.9213C291.66 42.1236 286.281 43.9152 282.075 46.5554C277.852 49.2036 274.683 52.7868 273.755 57.5487L275.249 57.8394L276.743 58.1301C277.459 54.4526 279.92 51.4981 283.687 49.1328C287.477 46.7597 292.462 45.0624 297.943 43.8995C308.888 41.5735 321.391 41.4714 329.026 42.0686L329.144 40.552H329.152ZM304.28 114.078C304.933 114.613 305.892 114.519 306.427 113.866C306.962 113.214 306.867 112.255 306.215 111.721L304.28 114.078ZM318.371 93.2079L318.78 91.7384H318.756L318.733 91.7306L318.363 93.2079H318.371ZM301.025 100.036L301.567 98.6141H301.552L301.536 98.6063L301.017 100.036H301.025ZM335.238 79.1422L333.76 79.5272V79.543L333.767 79.5587L335.238 79.1501V79.1422ZM331.959 52.6218L331.432 54.0519H331.44L331.951 52.6139L331.959 52.6218ZM275.249 57.8394L276.735 58.1773V58.1537L276.743 58.1301L275.249 57.8394Z" fill="white"/>
<path d="M132.689 361.839H244.315L202.082 278.568H90.4478L132.689 361.839Z" fill="#352C38"/>
<path d="M306.545 352.857H228.856V361.831H306.545V352.857Z" fill="#352C38"/>
<path d="M125.148 361.839H236.782L194.541 278.568H82.907L125.148 361.839Z" fill="#765E69"/>
</g>
</g>
<defs>
<clipPath id="clip0_922_790">
<rect width="539" height="361" fill="white"/>
</clipPath>
<clipPath id="clip1_922_790">
<rect width="413" height="365" fill="white" transform="translate(63.1152 -2.25)"/>
</clipPath>
<clipPath id="clip2_922_790">
<rect width="397" height="351" fill="white" transform="translate(71 12)"/>
</clipPath>
</defs>
</svg>
