<svg width="42" height="42" fill="none" xmlns="http://www.w3.org/2000/svg"><g clip-path="url('#clip0_400_687')" fill="#5B54DC"><path d="M24 22a2 2 0 1 1 0 4 2 2 0 0 1 0-4ZM17.5 20a2.5 2.5 0 1 1 0 5 2.5 2.5 0 0 1 0-5ZM23 15a2 2 0 1 1 0 4 2 2 0 0 1 0-4Z"/><path fill-rule="evenodd" clip-rule="evenodd" d="M21.5.5a4 4 0 0 1 4 4l-.004.18c-.04.901-.38 1.726-.92 2.375-.07.083-.176.337-.176.645v.831c0 .485.394 1.103 1.196 1.437.772.321 1.458.168 1.815-.189l.569-.568a.196.196 0 0 0 .012-.03 3.87 3.87 0 0 1 1.016-3.684l.144-.138a3.875 3.875 0 0 1 5.335.138l2.016 2.015.138.144a3.876 3.876 0 0 1 0 5.192l-.138.144a3.87 3.87 0 0 1-3.687 1.016.201.201 0 0 0-.026.01l-.57.57c-.357.357-.51 1.045-.189 1.817.334.801.952 1.194 1.436 1.195h.833c.306 0 .56-.106.644-.176A4 4 0 0 1 41.5 20.5v1a4 4 0 0 1-6.557 3.075c-.083-.069-.336-.175-.643-.175h-.833c-.484 0-1.102.393-1.436 1.195-.321.771-.17 1.458.188 1.815l.59.59.096.076a.933.933 0 0 0 .15.08c.093.04.15.047.16.048a3.867 3.867 0 0 1 2.965 1.128l.137.145a3.876 3.876 0 0 1 0 5.19l-.137.145-1.368 1.368a3.876 3.876 0 0 1-5.335.137l-.145-.137a3.866 3.866 0 0 1-1.127-2.966c0 .016.002-.043-.048-.16a.929.929 0 0 0-.08-.15l-.076-.095-.59-.59c-.357-.357-1.043-.51-1.815-.188-.802.334-1.196.953-1.196 1.437v.832c0 .307.106.56.175.643A4 4 0 0 1 21.5 41.5h-1a4 4 0 0 1-3.076-6.556c.07-.084.176-.338.176-.644v-.833c0-.484-.394-1.102-1.195-1.436-.772-.322-1.46-.168-1.817.19l-.57.57a.22.22 0 0 0-.011.027 3.87 3.87 0 0 1-.83 3.488l-.185.197a3.875 3.875 0 0 1-5.335.138l-.144-.138-2.016-2.015a3.876 3.876 0 0 1 0-5.48l.197-.185a3.872 3.872 0 0 1 3.487-.83.206.206 0 0 0 .03-.013l.57-.569c.356-.357.51-1.044.188-1.816-.334-.801-.952-1.194-1.436-1.195H7.7c-.308 0-.562.106-.645.176A4 4 0 0 1 .5 21.5v-1a4 4 0 0 1 4-4l.18.004c.9.04 1.725.38 2.374.919.085.07.34.177.646.177h.833c.484 0 1.102-.394 1.436-1.195.321-.772.168-1.459-.189-1.816l-.57-.57a.198.198 0 0 0-.03-.013 3.869 3.869 0 0 1-3.486-.83l-.197-.184a3.875 3.875 0 0 1 0-5.48l2.015-2.015.144-.138a3.876 3.876 0 0 1 5.336.138l.185.197a3.87 3.87 0 0 1 .83 3.487.21.21 0 0 0 .012.03l.568.568c.357.358 1.045.51 1.817.189.802-.334 1.196-.952 1.196-1.437v-.83c0-.307-.107-.562-.177-.647A4 4 0 0 1 20.5.5h1Zm-1 3a1 1 0 0 0-.77 1.635c.636.765.87 1.766.87 2.565v.831c0 2.057-1.498 3.563-3.042 4.206-1.573.655-3.653.603-5.092-.837l-.588-.588a3.056 3.056 0 0 1-.747-1.274 2.846 2.846 0 0 1-.037-1.567l.023-.114a.869.869 0 0 0-.168-.649l-.078-.09a.876.876 0 0 0-1.172-.06l-.066.06-2.015 2.015a.876.876 0 0 0 0 1.238l.09.078a.87.87 0 0 0 .762.145l.212-.05a2.91 2.91 0 0 1 1.356.088c.391.117.793.32 1.133.615l.142.132.588.589c1.439 1.439 1.491 3.518.836 5.09-.643 1.544-2.148 3.041-4.204 3.042H7.7c-.799 0-1.8-.234-2.565-.87a.982.982 0 0 0-.545-.226L4.5 19.5a1 1 0 0 0-1 1v1a1 1 0 0 0 1.635.77c.765-.637 1.768-.87 2.565-.87h.833c2.056 0 3.561 1.498 4.204 3.041.655 1.573.603 3.652-.836 5.091l-.588.59a3.057 3.057 0 0 1-1.275.746 2.848 2.848 0 0 1-1.566.037.874.874 0 0 0-.764.145l-.09.079a.876.876 0 0 0 0 1.238l2.016 2.015.066.06c.344.28.85.26 1.171-.06l.08-.09a.873.873 0 0 0 .144-.763 2.846 2.846 0 0 1 .037-1.568c.134-.447.38-.907.746-1.273l.588-.588c1.439-1.44 3.52-1.494 5.093-.838 1.543.643 3.04 2.148 3.04 4.205v.833c0 .798-.233 1.799-.87 2.563a1 1 0 0 0 .77 1.637h1.001a1 1 0 0 0 .77-1.636c-.637-.765-.87-1.768-.87-2.564v-.832c0-2.057 1.498-3.563 3.041-4.206 1.573-.656 3.653-.603 5.092.836l.59.59.114.12c.57.63 1.02 1.598.962 2.582a.867.867 0 0 0 .254.669l.067.06c.343.28.85.26 1.17-.06l1.369-1.369.06-.066a.875.875 0 0 0 0-1.105l-.06-.066a.867.867 0 0 0-.67-.254c-.984.057-1.95-.394-2.58-.963l-.122-.115-.59-.59c-1.438-1.439-1.49-3.518-.835-5.09.643-1.544 2.149-3.04 4.205-3.04h.833c.796 0 1.799.232 2.564.87a1 1 0 0 0 1.636-.77v-1.001a1 1 0 0 0-1.637-.77c-.764.636-1.765.87-2.563.87h-.833c-2.056 0-3.562-1.498-4.205-3.041-.655-1.574-.602-3.654.838-5.093l.587-.588a3.06 3.06 0 0 1 1.274-.746 2.904 2.904 0 0 1 1.355-.086l.212.049.113.023a.871.871 0 0 0 .74-.247l.06-.066a.876.876 0 0 0 0-1.106l-.06-.066-2.015-2.015a.875.875 0 0 0-1.17-.06l-.067.06a.872.872 0 0 0-.224.853 2.848 2.848 0 0 1-.037 1.567c-.134.447-.38.907-.747 1.274l-.588.59c-1.439 1.438-3.519 1.49-5.092.835-1.543-.643-3.04-2.15-3.04-4.206v-.83c0-.798.232-1.8.87-2.566A1 1 0 0 0 21.5 3.5h-1.001Zm-6.504 29.305v-.002l-1.056-1.055 1.056 1.057Z"/></g><defs><clipPath id="clip0_400_687"><path fill="#fff" d="M0 0h42v42H0z"/></clipPath></defs></svg>